<?xml version="1.0" encoding="utf-8"?>
<!-- Generator: Adobe Illustrator 20.1.0, SVG Export Plug-In . SVG Version: 6.00 Build 0)  -->
<svg version="1.1" id="Layer_1" xmlns="http://www.w3.org/2000/svg" xmlns:xlink="http://www.w3.org/1999/xlink" x="0px" y="0px"
	 viewBox="0 0 80 80" style="enable-background:new 0 0 80 80;" xml:space="preserve">
<style type="text/css">
	.st0{fill:#2372B8;}
</style>
<g>
	<path class="st0" d="M69.8,6.6H11.3C8.9,6.6,7,8.5,7,10.9v58.6c0,2.4,1.9,4.3,4.3,4.3h58.6c2.4,0,4.3-1.9,4.3-4.3V10.9
		C74.2,8.5,72.2,6.6,69.8,6.6z M68.4,69.1H12.1V22.5h56.3V69.1z"/>
	<rect x="46.8" y="58.4" class="st0" width="7.8" height="8.5"/>
	<rect x="36.6" y="58.4" class="st0" width="7.8" height="8.5"/>
	<rect x="26.3" y="58.4" class="st0" width="7.8" height="8.5"/>
	<rect x="16" y="58.4" class="st0" width="7.8" height="8.5"/>
	<rect x="57.1" y="47.6" class="st0" width="7.8" height="8.5"/>
	<rect x="46.8" y="47.6" class="st0" width="7.8" height="8.5"/>
	<rect x="36.6" y="47.6" class="st0" width="7.8" height="8.5"/>
	<rect x="26.3" y="47.6" class="st0" width="7.8" height="8.5"/>
	<rect x="16" y="47.6" class="st0" width="7.8" height="8.5"/>
	<rect x="57.1" y="36.8" class="st0" width="7.8" height="8.5"/>
	<rect x="46.8" y="36.8" class="st0" width="7.8" height="8.5"/>
	<rect x="36.6" y="36.8" class="st0" width="7.8" height="8.5"/>
	<rect x="26.3" y="36.8" class="st0" width="7.8" height="8.5"/>
	<rect x="16" y="36.8" class="st0" width="7.8" height="8.5"/>
	<rect x="57.1" y="26" class="st0" width="7.8" height="8.5"/>
	<rect x="46.8" y="26" class="st0" width="7.8" height="8.5"/>
	<rect x="36.6" y="26" class="st0" width="7.8" height="8.5"/>
	<rect x="26.3" y="26" class="st0" width="7.8" height="8.5"/>
</g>
</svg>
